REM DIRINDEX 1\4,1\2\5,1\2\6,1\2\7,1\3\8,1\3\9,1\3\10,1\3\11
REM DIRNAME folder01,folder02,folder03,folder04,folder05,folder06,folder07,folder08,folder09,folder10,folder11
TITLE ""
FILE "t_k_409-419.mp3" MP3
  TRACK 01 AUDIO
    TITLE "5:cjc108_1230"
    INDEX 01 00:00:00
  TRACK 02 AUDIO
    TITLE "0:"
    INDEX 01 00:01:05
  TRACK 03 AUDIO
    TITLE "6:cjc108_1231"
    INDEX 01 00:01:26
  TRACK 04 AUDIO
    TITLE "0:"
    INDEX 01 00:02:67
  TRACK 05 AUDIO
    TITLE "7:cjc108_1232"
    INDEX 01 00:03:08
  TRACK 06 AUDIO
    TITLE "0:"
    INDEX 01 00:08:48
  TRACK 07 AUDIO
    TITLE "5:cjc108_1233"
    INDEX 01 00:09:36
  TRACK 08 AUDIO
    TITLE "0:"
    INDEX 01 00:10:63
  TRACK 09 AUDIO
    TITLE "6:cjc108_1234"
    INDEX 01 00:11:03
  TRACK 10 AUDIO
    TITLE "0:"
    INDEX 01 00:12:34
  TRACK 11 AUDIO
    TITLE "7:cjc108_1235"
    INDEX 01 00:12:50
  TRACK 12 AUDIO
    TITLE "0:"
    INDEX 01 00:19:36
  TRACK 13 AUDIO
    TITLE "5:cjc108_1236"
    INDEX 01 00:20:10
  TRACK 14 AUDIO
    TITLE "0:"
    INDEX 01 00:21:17
  TRACK 15 AUDIO
    TITLE "6:cjc108_1237"
    INDEX 01 00:21:35
  TRACK 16 AUDIO
    TITLE "0:"
    INDEX 01 00:22:54
  TRACK 17 AUDIO
    TITLE "7:cjc108_1238"
    INDEX 01 00:22:72
  TRACK 18 AUDIO
    TITLE "0:"
    INDEX 01 00:29:17
  TRACK 19 AUDIO
    TITLE "5:cjc108_1239"
    INDEX 01 00:30:05
  TRACK 20 AUDIO
    TITLE "0:"
    INDEX 01 00:31:12
  TRACK 21 AUDIO
    TITLE "6:cjc108_1240"
    INDEX 01 00:31:33
  TRACK 22 AUDIO
    TITLE "0:"
    INDEX 01 00:32:52
  TRACK 23 AUDIO
    TITLE "7:cjc108_1241"
    INDEX 01 00:32:70
  TRACK 24 AUDIO
    TITLE "0:"
    INDEX 01 00:38:65
  TRACK 25 AUDIO
    TITLE "5:cjc108_1242"
    INDEX 01 00:39:47
  TRACK 26 AUDIO
    TITLE "0:"
    INDEX 01 00:40:66
  TRACK 27 AUDIO
    TITLE "6:cjc108_1243"
    INDEX 01 00:41:04
  TRACK 28 AUDIO
    TITLE "0:"
    INDEX 01 00:43:48
  TRACK 29 AUDIO
    TITLE "7:cjc108_1244"
    INDEX 01 00:43:62
  TRACK 30 AUDIO
    TITLE "0:"
    INDEX 01 00:47:46
  TRACK 31 AUDIO
    TITLE "5:cjc108_1245"
    INDEX 01 00:48:26
  TRACK 32 AUDIO
    TITLE "0:"
    INDEX 01 00:49:33
  TRACK 33 AUDIO
    TITLE "6:cjc108_1246"
    INDEX 01 00:49:57
  TRACK 34 AUDIO
    TITLE "0:"
    INDEX 01 00:51:07
  TRACK 35 AUDIO
    TITLE "7:cjc108_1247"
    INDEX 01 00:51:26
  TRACK 36 AUDIO
    TITLE "0:"
    INDEX 01 00:56:04
  TRACK 37 AUDIO
    TITLE "5:cjc108_1248"
    INDEX 01 00:56:65
  TRACK 38 AUDIO
    TITLE "0:"
    INDEX 01 00:58:07
  TRACK 39 AUDIO
    TITLE "6:cjc108_1249"
    INDEX 01 00:58:28
  TRACK 40 AUDIO
    TITLE "0:"
    INDEX 01 00:59:57
  TRACK 41 AUDIO
    TITLE "7:cjc108_1250"
    INDEX 01 01:00:08
  TRACK 42 AUDIO
    TITLE "0:"
    INDEX 01 01:04:17
  TRACK 43 AUDIO
    TITLE "5:cjc108_1251"
    INDEX 01 01:05:03
  TRACK 44 AUDIO
    TITLE "0:"
    INDEX 01 01:06:24
  TRACK 45 AUDIO
    TITLE "6:cjc108_1252"
    INDEX 01 01:06:42
  TRACK 46 AUDIO
    TITLE "0:"
    INDEX 01 01:07:72
  TRACK 47 AUDIO
    TITLE "7:cjc108_1253"
    INDEX 01 01:08:13
  TRACK 48 AUDIO
    TITLE "0:"
    INDEX 01 01:12:28
  TRACK 49 AUDIO
    TITLE "5:cjc108_1254"
    INDEX 01 01:13:10
  TRACK 50 AUDIO
    TITLE "0:"
    INDEX 01 01:14:29
  TRACK 51 AUDIO
    TITLE "6:cjc108_1255"
    INDEX 01 01:14:41
  TRACK 52 AUDIO
    TITLE "0:"
    INDEX 01 01:17:18
  TRACK 53 AUDIO
    TITLE "7:cjc108_1256"
    INDEX 01 01:17:33
  TRACK 54 AUDIO
    TITLE "0:"
    INDEX 01 01:21:27
  TRACK 55 AUDIO
    TITLE "5:cjc108_1257"
    INDEX 01 01:22:03
  TRACK 56 AUDIO
    TITLE "0:"
    INDEX 01 01:23:24
  TRACK 57 AUDIO
    TITLE "6:cjc108_1258"
    INDEX 01 01:23:34
  TRACK 58 AUDIO
    TITLE "0:"
    INDEX 01 01:25:53
  TRACK 59 AUDIO
    TITLE "7:cjc108_1259"
    INDEX 01 01:25:70
  TRACK 60 AUDIO
    TITLE "0:"
    INDEX 01 01:32:00
  TRACK 61 AUDIO
    TITLE "5:cjc108_1260"
    INDEX 01 01:32:59
  TRACK 62 AUDIO
    TITLE "0:"
    INDEX 01 01:33:62
  TRACK 63 AUDIO
    TITLE "6:cjc108_1261"
    INDEX 01 01:34:05
  TRACK 64 AUDIO
    TITLE "0:"
    INDEX 01 01:35:14
  TRACK 65 AUDIO
    TITLE "7:cjc108_1262"
    INDEX 01 01:35:27
  TRACK 66 AUDIO
    TITLE "0:"
    INDEX 01 01:40:23
